<svg width="180" height="494" viewBox="0 0 180 494" fill="none" xmlns="http://www.w3.org/2000/svg">
<path d="M35 443H92" stroke="#767676" stroke-dasharray="3 4"/>
<path d="M35 394H92" stroke="#767676" stroke-dasharray="3 4"/>
<path d="M35 345H92" stroke="#767676" stroke-dasharray="3 4"/>
<path d="M35 296H92" stroke="#767676" stroke-dasharray="3 4"/>
<path d="M35 247H92" stroke="#767676" stroke-dasharray="3 4"/>
<path d="M35 198H92" stroke="#767676" stroke-dasharray="3 4"/>
<path d="M35 149H92" stroke="#767676" stroke-dasharray="3 4"/>
<path d="M0.5 100H168.5" stroke="#767676" stroke-dasharray="3 4"/>
<path d="M35 51H92" stroke="#767676" stroke-dasharray="3 4"/>
<path d="M92.4075 131.202L91.9891 131.271V131.695V493H35.1409V131.695V131.271L34.7224 131.202C12.9071 127.594 -8.02704 119.885 -26.9724 108.485C-26.9725 108.485 -26.9726 108.485 -26.9726 108.485L-51.3136 93.8224L-21.9722 45.1323L2.36913 59.7949L2.36949 59.7951C12.3683 65.8066 23.2025 70.3044 34.5192 73.142L35.1409 73.2979V72.657V0.5H91.9891V72.657V73.2979L92.6107 73.142C103.927 70.3044 114.762 65.8066 124.76 59.7951L124.761 59.7949L149.102 45.1323L178.443 93.8224L154.103 108.485C154.102 108.485 154.102 108.485 154.102 108.485C135.157 119.885 114.223 127.594 92.4075 131.202Z" stroke="#0D47A1"/>
</svg>
