<svg xmlns="http://www.w3.org/2000/svg" width="213" height="228" x="4" y="-4" viewBox="0 0 213 228" fill="none">
  <path d="M197.139 140.65L197.138 140.65C193.433 142.708 190.054 145.304 187.111 148.353L186.667 148.812L187.22 149.133L211.942 163.448L202.001 180.641L177.279 166.354L176.726 166.034L176.549 166.649C175.373 170.735 174.813 174.974 174.887 179.226L174.887 179.227L175.073 189.168L155.19 189.539L155.004 179.597C154.862 171.655 156.225 163.758 159.021 156.322L159.17 155.926L158.803 155.714L117.004 131.561L116.254 131.127V131.994V180.266V180.69L116.672 180.759C124.508 182.055 132.027 184.824 138.831 188.92L147.344 194.048L137.082 211.08L128.569 205.951L128.568 205.951C124.932 203.764 120.991 202.128 116.876 201.096L116.254 200.94V201.581V227.312H96.3711V201.581V200.94L95.7495 201.096C91.6336 202.128 87.6933 203.764 84.0567 205.951L84.0563 205.951L75.5429 211.08L65.2807 194.048L73.7938 188.92C80.5984 184.824 88.1173 182.055 95.9527 180.759L96.3711 180.69V180.266V131.994V131.127L95.6209 131.561L53.8221 155.714L53.4549 155.926L53.6043 156.323C56.4026 163.759 57.767 171.658 57.6255 179.602L57.4402 189.543L37.5572 189.173L37.7425 179.231C37.8212 174.987 37.2677 170.755 36.1002 166.673L35.924 166.058L35.3694 166.378L10.6244 180.665L0.682679 163.448L25.4286 149.114L25.9828 148.793L25.537 148.333C22.5852 145.289 19.1981 142.699 15.4863 140.65C15.4863 140.649 15.4862 140.649 15.4862 140.649L6.78765 135.842L16.4036 118.44L25.0973 123.247C25.0974 123.247 25.0974 123.247 25.0974 123.247C32.0475 127.093 38.2053 132.222 43.2443 138.362L43.5135 138.69L43.8809 138.478L85.6797 114.339L86.4295 113.906L85.6798 113.473L43.8857 89.3346L43.5182 89.1224L43.2491 89.4504C38.2101 95.5905 32.0523 100.719 25.1023 104.565C25.1022 104.565 25.1021 104.565 25.1021 104.565L16.4037 109.373L6.78775 91.9711L15.4862 87.1678C19.198 85.1179 22.5851 82.5285 25.537 79.4844L25.9834 79.0241L25.4281 78.7034L0.682994 64.4114L10.6247 47.1942L35.3652 61.4396L35.9195 61.7587L36.0954 61.1438C37.263 57.0626 37.8165 52.8302 37.7378 48.586L37.5525 38.6444L57.4355 38.2739L57.6207 48.215C57.7632 56.1574 56.4004 64.0548 53.6042 71.49L53.455 71.8868L53.8221 72.0989L95.6209 96.2518L96.3711 96.6853V95.8189V47.5464V47.1223L95.9527 47.0531C88.1174 45.757 80.5985 42.9882 73.794 38.8931C73.7939 38.8931 73.7939 38.893 73.7938 38.893L65.2807 33.7643L75.5429 16.7328L84.0563 21.8616L84.0567 21.8619C87.6933 24.0485 91.6336 25.6845 95.7495 26.7166L96.3711 26.8725V26.2317V0.5H116.254V26.2317V26.8725L116.876 26.7166C120.991 25.6845 124.932 24.0485 128.568 21.8619L128.569 21.8616L137.082 16.7328L147.344 33.7643L138.831 38.893C132.027 42.9882 124.508 45.757 116.672 47.0531L116.254 47.1223V47.5464V95.8189V96.6853L117.004 96.2518L158.803 72.0989L159.17 71.887L159.021 71.4904C156.234 64.0599 154.877 56.1691 155.023 48.2344L155.208 38.2929L175.091 38.6634L174.906 48.6049C174.827 52.8492 175.381 57.0815 176.549 61.1628L176.725 61.7783L177.279 61.4584L202.001 47.1945L211.942 64.3881L187.201 78.6988L186.647 79.0197L187.093 79.4797C190.045 82.5238 193.432 85.113 197.143 87.163C197.143 87.163 197.144 87.163 197.144 87.1631L205.842 91.971L196.226 109.373L187.528 104.565C187.528 104.565 187.528 104.565 187.527 104.565C180.577 100.719 174.42 95.5905 169.381 89.4504L169.112 89.1225L168.744 89.3346L126.945 113.473L126.196 113.906L126.945 114.339L168.739 138.478L169.107 138.69L169.376 138.362C174.415 132.222 180.573 127.093 187.523 123.247L196.221 118.44L205.837 135.842L197.139 140.65Z" stroke="#0D47A1"/>
</svg>