<svg xmlns="http://www.w3.org/2000/svg" width="17" height="17" viewBox="0 0 17 17" fill="none">
  <g clip-path="url(#clip0_74_1333)">
    <path d="M8.49984 15.5834C12.412 15.5834 15.5832 12.4121 15.5832 8.50002C15.5832 4.5879 12.412 1.41669 8.49984 1.41669C4.58771 1.41669 1.4165 4.5879 1.4165 8.50002C1.4165 12.4121 4.58771 15.5834 8.49984 15.5834ZM10.6248 11.3334L6.37484 5.66669L10.6248 11.3334ZM6.37484 11.3334L8.49984 8.50002L10.6248 5.66669" fill="#D9D9D9"/>
    <path d="M10.6248 11.3334L6.37484 5.66669M6.37484 11.3334L8.49984 8.50002L10.6248 5.66669M8.49984 15.5834C12.412 15.5834 15.5832 12.4121 15.5832 8.50002C15.5832 4.5879 12.412 1.41669 8.49984 1.41669C4.58771 1.41669 1.4165 4.5879 1.4165 8.50002C1.4165 12.4121 4.58771 15.5834 8.49984 15.5834Z" stroke="white" stroke-width="1.5" stroke-linecap="round" stroke-linejoin="round"/>
  </g>
  <defs>
    <clipPath id="clip0_74_1333">
      <rect width="17" height="17" fill="white"/>
    </clipPath>
  </defs>
</svg>
