<svg width="64" height="64" viewBox="0 0 64 64" fill="none" xmlns="http://www.w3.org/2000/svg">
<g filter="url(#filter0_d_74_1262)">
<path d="M8 20C8 11.7157 14.7157 5 23 5H41C49.2843 5 56 11.7157 56 20V38C56 46.2843 49.2843 53 41 53H23C14.7157 53 8 46.2843 8 38V20Z" fill="white"/>
</g>
<path fill-rule="evenodd" clip-rule="evenodd" d="M32 44C23.7157 44 17 37.2843 17 29C17 20.7157 23.7157 14 32 14C40.2843 14 47 20.7157 47 29C47 37.2843 40.2843 44 32 44ZM42.0903 35.9885C43.4665 34.0052 44.273 31.5968 44.273 29C44.273 22.222 38.7783 16.7273 32.0003 16.7273C25.2222 16.7273 19.7275 22.222 19.7275 29C19.7275 31.5965 20.5339 34.0048 21.9099 35.9879C23.4447 33.9609 27.0509 33.0909 31.9998 33.0909C36.9492 33.0909 40.5557 33.9611 42.0903 35.9885ZM40.1336 38.1909C39.7347 36.7556 36.8675 35.8182 31.9998 35.8182C27.1329 35.8182 24.2657 36.7554 23.8663 38.1903C26.0317 40.1083 28.88 41.2727 32.0003 41.2727C35.1202 41.2727 37.9682 40.1085 40.1336 38.1909ZM31.9995 20.8181C28.6982 20.8181 26.5449 23.2123 26.5449 26.2727C26.5449 30.9464 28.9461 33.0908 31.9995 33.0908C35.0241 33.0908 37.454 31.0176 37.454 26.5454C37.454 23.4384 35.2916 20.8181 31.9995 20.8181ZM29.2725 26.2727C29.2725 29.3672 30.3882 30.3637 31.9997 30.3637C33.6057 30.3637 34.727 29.4069 34.727 26.5455C34.727 24.8415 33.6574 23.5455 31.9997 23.5455C30.273 23.5455 29.2725 24.658 29.2725 26.2727Z" fill="#42A5F5"/>
<defs>
<filter id="filter0_d_74_1262" x="0" y="0" width="64" height="64" filterUnits="userSpaceOnUse" color-interpolation-filters="sRGB">
<feFlood flood-opacity="0" result="BackgroundImageFix"/>
<feColorMatrix in="SourceAlpha" type="matrix" values="0 0 0 0 0 0 0 0 0 0 0 0 0 0 0 0 0 0 127 0" result="hardAlpha"/>
<feOffset dy="3"/>
<feGaussianBlur stdDeviation="4"/>
<feColorMatrix type="matrix" values="0 0 0 0 0 0 0 0 0 0 0 0 0 0 0 0 0 0 0.24 0"/>
<feBlend mode="normal" in2="BackgroundImageFix" result="effect1_dropShadow_74_1262"/>
<feBlend mode="normal" in="SourceGraphic" in2="effect1_dropShadow_74_1262" result="shape"/>
</filter>
</defs>
</svg>
